{"asset":{"version":"2.0","generator":"Blockbench 4.12.6 glTF exporter"},"scenes":[{"nodes":[7],"name":"blockbench_export"}],"scene":0,"nodes":[{"translation":[-0.375,0.3125,0],"name":"Hand","mesh":0},{"translation":[0.375,0.3125,0],"name":"Hand","mesh":1},{"translation":[-0.121875,-0.2109375,0.125],"name":"Shoe","mesh":2},{"translation":[0.121875,-0.2109375,0.125],"name":"Shoe","mesh":3},{"translation":[0,0.625,0],"name":"Head","mesh":4},{"translation":[0,0.125,0],"name":"Body","mesh":5},{"translation":[0,0.4375,0],"name":"bone","children":[4,5]},{"children":[0,1,2,3,6]}],"bufferViews":[{"buffer":0,"byteOffset":0,"byteLength":1152,"target":34962,"byteStride":12},{"buffer":0,"byteOffset":1152,"byteLength":1152,"target":34962,"byteStride":12},{"buffer":0,"byteOffset":2304,"byteLength":768,"target":34962,"byteStride":8},{"buffer":0,"byteOffset":3072,"byteLength":264,"target":34963},{"buffer":0,"byteOffset":3336,"byteLength":1152,"target":34962,"byteStride":12},{"buffer":0,"byteOffset":4488,"byteLength":1152,"target":34962,"byteStride":12},{"buffer":0,"byteOffset":5640,"byteLength":768,"target":34962,"byteStride":8},{"buffer":0,"byteOffset":6408,"byteLength":264,"target":34963},{"buffer":0,"byteOffset":6672,"byteLength":1440,"target":34962,"byteStride":12},{"buffer":0,"byteOffset":8112,"byteLength":1440,"target":34962,"byteStride":12},{"buffer":0,"byteOffset":9552,"byteLength":960,"target":34962,"byteStride":8},{"buffer":0,"byteOffset":10512,"byteLength":360,"target":34963},{"buffer":0,"byteOffset":10872,"byteLength":1440,"target":34962,"byteStride":12},{"buffer":0,"byteOffset":12312,"byteLength":1440,"target":34962,"byteStride":12},{"buffer":0,"byteOffset":13752,"byteLength":960,"target":34962,"byteStride":8},{"buffer":0,"byteOffset":14712,"byteLength":360,"target":34963},{"buffer":0,"byteOffset":15072,"byteLength":1536,"target":34962,"byteStride":12},{"buffer":0,"byteOffset":16608,"byteLength":1536,"target":34962,"byteStride":12},{"buffer":0,"byteOffset":18144,"byteLength":1024,"target":34962,"byteStride":8},{"buffer":0,"byteOffset":19168,"byteLength":384,"target":34963},{"buffer":0,"byteOffset":19552,"byteLength":672,"target":34962,"byteStride":12},{"buffer":0,"byteOffset":20224,"byteLength":672,"target":34962,"byteStride":12},{"buffer":0,"byteOffset":20896,"byteLength":448,"target":34962,"byteStride":8},{"buffer":0,"byteOffset":21344,"byteLength":168,"target":34963}],"buffers":[{"byteLength":21512,"uri":"data:application/octet-stream;base64,"}],"accessors":[{"bufferView":0,"componentType":5126,"count":96,"max":[0.109375,0.359375,0.109375],"min":[-0.109375,0.140625,-0.109375],"type":"VEC3"},{"bufferView":1,"componentType":5126,"count":96,"max":[1,1,1],"min":[-1,-1,-1],"type":"VEC3"},{"bufferView":2,"componentType":5126,"count":96,"max":[0.375,0.375],"min":[0,0],"type":"VEC2"},{"bufferView":3,"componentType":5123,"count":132,"max":[95],"min":[0],"type":"SCALAR"},{"bufferView":4,"componentType":5126,"count":96,"max":[0.109375,0.359375,0.109375],"min":[-0.109375,0.140625,-0.109375],"type":"VEC3"},{"bufferView":5,"componentType":5126,"count":96,"max":[1,1,1],"min":[-1,-1,-1],"type":"VEC3"},{"bufferView":6,"componentType":5126,"count":96,"max":[0.375,0.375],"min":[0,0],"type":"VEC2"},{"bufferView":7,"componentType":5123,"count":132,"max":[95],"min":[0],"type":"SCALAR"},{"bufferView":8,"componentType":5126,"count":120,"max":[0.08124999701976776,0.390625,0.05781250074505806],"min":[-0.08124999701976776,0.2265625,-0.18593749403953552],"type":"VEC3"},{"bufferView":9,"componentType":5126,"count":120,"max":[1,1,1],"min":[-1,-1,-0.99994295835495],"type":"VEC3"},{"bufferView":10,"componentType":5126,"count":120,"max":[0.5,0.515625],"min":[0,0],"type":"VEC2"},{"bufferView":11,"componentType":5123,"count":180,"max":[119],"min":[0],"type":"SCALAR"},{"bufferView":12,"componentType":5126,"count":120,"max":[0.08124999701976776,0.390625,0.05781250074505806],"min":[-0.08124999701976776,0.2265625,-0.18593749403953552],"type":"VEC3"},{"bufferView":13,"componentType":5126,"count":120,"max":[1,1,1],"min":[-1,-1,-0.99994295835495],"type":"VEC3"},{"bufferView":14,"componentType":5126,"count":120,"max":[0.5,0.515625],"min":[0,0],"type":"VEC2"},{"bufferView":15,"componentType":5123,"count":180,"max":[119],"min":[0],"type":"SCALAR"},{"bufferView":16,"componentType":5126,"count":128,"max":[0.26249998807907104,0.5,0.28125],"min":[-0.26249998807907104,-0.046875,-0.28125],"type":"VEC3"},{"bufferView":17,"componentType":5126,"count":128,"max":[1,1,1],"min":[-1,-1,-1],"type":"VEC3"},{"bufferView":18,"componentType":5126,"count":128,"max":[0.834540605545044,0.6353281140327454],"min":[0,0],"type":"VEC2"},{"bufferView":19,"componentType":5123,"count":192,"max":[127],"min":[0],"type":"SCALAR"},{"bufferView":20,"componentType":5126,"count":56,"max":[0.1875,0.4375,0.1875],"min":[-0.1875,-0.3125,-0.1875],"type":"VEC3"},{"bufferView":21,"componentType":5126,"count":56,"max":[1,1,1],"min":[-1,-1,-1],"type":"VEC3"},{"bufferView":22,"componentType":5126,"count":56,"max":[0.5,0.5],"min":[0,0],"type":"VEC2"},{"bufferView":23,"componentType":5123,"count":84,"max":[55],"min":[0],"type":"SCALAR"}],"materials":[{"pbrMetallicRoughness":{"metallicFactor":0,"roughnessFactor":1},"alphaMode":"MASK","alphaCutoff":0.05,"doubleSided":true},{"pbrMetallicRoughness":{"metallicFactor":0,"roughnessFactor":1},"alphaMode":"MASK","alphaCutoff":0.05,"doubleSided":true},{"pbrMetallicRoughness":{"metallicFactor":0,"roughnessFactor":1,"baseColorTexture":{"index":0}},"alphaMode":"MASK","alphaCutoff":0.05,"doubleSided":true}],"meshes":[{"primitives":[{"mode":4,"attributes":{"POSITION":0,"NORMAL":1,"TEXCOORD_0":2},"indices":3,"material":0}]},{"primitives":[{"mode":4,"attributes":{"POSITION":4,"NORMAL":5,"TEXCOORD_0":6},"indices":7,"material":0}]},{"primitives":[{"mode":4,"attributes":{"POSITION":8,"NORMAL":9,"TEXCOORD_0":10},"indices":11,"material":1}]},{"primitives":[{"mode":4,"attributes":{"POSITION":12,"NORMAL":13,"TEXCOORD_0":14},"indices":15,"material":1}]},{"primitives":[{"mode":4,"attributes":{"POSITION":16,"NORMAL":17,"TEXCOORD_0":18},"indices":19,"material":2}]},{"primitives":[{"mode":4,"attributes":{"POSITION":20,"NORMAL":21,"TEXCOORD_0":22},"indices":23,"material":1}]}],"textures":[{"sampler":0,"source":0,"name":"Head"}],"samplers":[{"magFilter":9728,"minFilter":9728,"wrapS":33071,"wrapT":33071}],"images":[{"mimeType":"image/png","uri":"data:image/png;base64,"}]}