{
	"asset":{
		"generator":"Khronos glTF Blender I/O v3.6.28",
		"version":"2.0"
	},
	"scene":0,
	"scenes":[
		{
			"name":"Scene",
			"nodes":[
				0,
				1,
				2,
				3
			]
		}
	],
	"nodes":[
		{
			"mesh":0,
			"name":"Head",
			"translation":[
				0,
				2.188983678817749,
				0
			]
		},
		{
			"mesh":1,
			"name":"B",
			"rotation":[
				0,
				0.7071068286895752,
				0,
				0.7071068286895752
			],
			"scale":[
				0.3793121576309204,
				0.4598112404346466,
				0.44815003871917725
			],
			"translation":[
				0,
				1.223112940788269,
				0
			]
		},
		{
			"mesh":2,
			"name":"Hand",
			"rotation":[
				0,
				0,
				0.30196285247802734,
				0.9533197283744812
			],
			"scale":[
				0.17737063765525818,
				0.17737063765525818,
				0.17737063765525818
			],
			"translation":[
				0.7014904022216797,
				1.0599074363708496,
				0.01358708180487156
			]
		},
		{
			"mesh":3,
			"name":"Cube",
			"scale":[
				0.15836955606937408,
				0.15836955606937408,
				0.3022712767124176
			],
			"translation":[
				0.2644476592540741,
				0.24237826466560364,
				0.1382904201745987
			]
		}
	],
	"materials":[
		{
			"doubleSided":true,
			"name":"Material",
			"pbrMetallicRoughness":{
				"baseColorTexture":{
					"index":0
				},
				"metallicFactor":0,
				"roughnessFactor":0.5
			}
		}
	],
	"meshes":[
		{
			"name":"Cube.001",
			"primitives":[
				{
					"attributes":{
						"POSITION":0,
						"NORMAL":1,
						"TEXCOORD_0":2
					},
					"indices":3,
					"material":0
				}
			]
		},
		{
			"name":"Cube",
			"primitives":[
				{
					"attributes":{
						"POSITION":4,
						"NORMAL":5,
						"TEXCOORD_0":6
					},
					"indices":7,
					"material":0
				}
			]
		},
		{
			"name":"Cube.002",
			"primitives":[
				{
					"attributes":{
						"POSITION":8,
						"NORMAL":9,
						"TEXCOORD_0":10
					},
					"indices":11,
					"material":0
				}
			]
		},
		{
			"name":"Cube.004",
			"primitives":[
				{
					"attributes":{
						"POSITION":12,
						"NORMAL":13,
						"TEXCOORD_0":14
					},
					"indices":15,
					"material":0
				}
			]
		}
	],
	"textures":[
		{
			"sampler":0,
			"source":0
		}
	],
	"images":[
		{
			"bufferView":4,
			"mimeType":"image/png",
			"name":"character_texture"
		}
	],
	"accessors":[
		{
			"bufferView":0,
			"componentType":5126,
			"count":404,
			"max":[
				0.41116270422935486,
				0.40015268325805664,
				0.43218088150024414
			],
			"min":[
				-0.41116270422935486,
				-0.3440723121166229,
				-0.4000000059604645
			],
			"type":"VEC3"
		},
		{
			"bufferView":1,
			"componentType":5126,
			"count":404,
			"type":"VEC3"
		},
		{
			"bufferView":2,
			"componentType":5126,
			"count":404,
			"type":"VEC2"
		},
		{
			"bufferView":3,
			"componentType":5123,
			"count":756,
			"type":"SCALAR"
		},
		{
			"bufferView":5,
			"componentType":5126,
			"count":208,
			"max":[
				0.846820592880249,
				1.3693187236785889,
				0.8468206524848938
			],
			"min":[
				-0.7729375958442688,
				-1.1831140518188477,
				-0.8468206524848938
			],
			"type":"VEC3"
		},
		{
			"bufferView":6,
			"componentType":5126,
			"count":208,
			"type":"VEC3"
		},
		{
			"bufferView":7,
			"componentType":5126,
			"count":208,
			"type":"VEC2"
		},
		{
			"bufferView":8,
			"componentType":5123,
			"count":312,
			"type":"SCALAR"
		},
		{
			"bufferView":9,
			"componentType":5126,
			"count":432,
			"max":[
				0.8682860136032104,
				1.769742727279663,
				0.8569043874740601
			],
			"min":[
				-1.1597052812576294,
				-0.7007046937942505,
				-0.8618378639221191
			],
			"type":"VEC3"
		},
		{
			"bufferView":10,
			"componentType":5126,
			"count":432,
			"type":"VEC3"
		},
		{
			"bufferView":11,
			"componentType":5126,
			"count":432,
			"type":"VEC2"
		},
		{
			"bufferView":12,
			"componentType":5123,
			"count":660,
			"type":"SCALAR"
		},
		{
			"bufferView":13,
			"componentType":5126,
			"count":422,
			"max":[
				1.0166610479354858,
				2.0650720596313477,
				1.0482990741729736
			],
			"min":[
				-1.0166610479354858,
				-1,
				-1.125369906425476
			],
			"type":"VEC3"
		},
		{
			"bufferView":14,
			"componentType":5126,
			"count":422,
			"type":"VEC3"
		},
		{
			"bufferView":15,
			"componentType":5126,
			"count":422,
			"type":"VEC2"
		},
		{
			"bufferView":16,
			"componentType":5123,
			"count":780,
			"type":"SCALAR"
		}
	],
	"bufferViews":[
		{
			"buffer":0,
			"byteLength":4848,
			"byteOffset":0,
			"target":34962
		},
		{
			"buffer":0,
			"byteLength":4848,
			"byteOffset":4848,
			"target":34962
		},
		{
			"buffer":0,
			"byteLength":3232,
			"byteOffset":9696,
			"target":34962
		},
		{
			"buffer":0,
			"byteLength":1512,
			"byteOffset":12928,
			"target":34963
		},
		{
			"buffer":0,
			"byteLength":1622,
			"byteOffset":14440
		},
		{
			"buffer":0,
			"byteLength":2496,
			"byteOffset":16064,
			"target":34962
		},
		{
			"buffer":0,
			"byteLength":2496,
			"byteOffset":18560,
			"target":34962
		},
		{
			"buffer":0,
			"byteLength":1664,
			"byteOffset":21056,
			"target":34962
		},
		{
			"buffer":0,
			"byteLength":624,
			"byteOffset":22720,
			"target":34963
		},
		{
			"buffer":0,
			"byteLength":5184,
			"byteOffset":23344,
			"target":34962
		},
		{
			"buffer":0,
			"byteLength":5184,
			"byteOffset":28528,
			"target":34962
		},
		{
			"buffer":0,
			"byteLength":3456,
			"byteOffset":33712,
			"target":34962
		},
		{
			"buffer":0,
			"byteLength":1320,
			"byteOffset":37168,
			"target":34963
		},
		{
			"buffer":0,
			"byteLength":5064,
			"byteOffset":38488,
			"target":34962
		},
		{
			"buffer":0,
			"byteLength":5064,
			"byteOffset":43552,
			"target":34962
		},
		{
			"buffer":0,
			"byteLength":3376,
			"byteOffset":48616,
			"target":34962
		},
		{
			"buffer":0,
			"byteLength":1560,
			"byteOffset":51992,
			"target":34963
		}
	],
	"samplers":[
		{
			"magFilter":9728,
			"minFilter":9984
		}
	],
	"buffers":[
		{
			"byteLength":53552,
			"uri":"data:application/octet-stream;base64,"
		}
	]
}
